<svg width="58" height="20" viewBox="0 0 58 20" fill="none" xmlns="http://www.w3.org/2000/svg">
<g clip-path="url(#clip0_3498_19626)">
<path d="M1.17068 0H18.9602C19.57 0 20.0643 0.494444 20.0643 1.10417V18.8958C20.0643 19.5057 19.57 20 18.9602 20H1.17068C0.560897 20 0.0666504 19.5057 0.0666504 18.8958V1.10417C0.0666504 0.494444 0.560897 0 1.17068 0Z" fill="#3D5B99"/>
<path d="M13.865 20V12.2556H16.4647L16.8494 9.23614H13.865V7.30975C13.865 6.43614 14.108 5.84031 15.3607 5.84031H16.9591V3.14031C16.1856 3.05822 15.408 3.01836 14.6302 3.02086C12.3263 3.02086 10.7418 4.42781 10.7418 7.01114V9.23336H8.14209V12.2514H10.7487V20H13.865Z" fill="white"/>
<path d="M23.2639 0H56.8294C57.4392 0 57.9334 0.494444 57.9334 1.10417V18.8958C57.9334 19.5057 57.4392 20 56.8294 20H23.2639C22.6542 20 22.1599 19.5057 22.1599 18.8958V1.10417C22.1599 0.494444 22.6542 0 23.2639 0V0Z" fill="#EE4142"/>
<path d="M33.1585 12.9083H29.2701V5.76523H27.7563V14.2375H33.1557V12.9111L33.1585 12.9083ZM36.3039 14.2347V5.76245H34.7902V14.2347H36.3039ZM42.4657 14.2347L45.3945 5.76245H43.7794L41.6672 12.4652H41.5686L39.4383 5.76245H37.7718L40.7298 14.2347H42.4726H42.4657ZM52.3367 12.9263H48.3733V10.5555H52.1229V9.32356H48.3733V7.07356H52.3409V5.76523H46.8554V14.2375H52.3367V12.9291V12.9263Z" fill="white"/>
</g>
<defs>
<clipPath id="clip0_3498_19626">
<rect width="57.8667" height="20" fill="white" transform="translate(0.0666504)"/>
</clipPath>
</defs>
</svg>
