<svg width="62" height="20" viewBox="0 0 62 20" fill="none" xmlns="http://www.w3.org/2000/svg">
<path d="M60.2093 14.2121H55.9583V8.94829H54.8955V14.2121H50.6445V1.05541H54.8955V4.73773H58.0838L60.2093 6.84327V14.2121ZM49.587 8.94829H45.336V10.0037H49.587V14.2148H43.2137L41.0882 12.1092V6.84327L43.2137 4.73773H49.587V8.94829ZM40.027 8.94829H36.3073V10.0037H40.027V14.2148H34.185L32.0595 12.1092V1.05541H36.3105V4.73773H40.0302L40.027 8.94829ZM30.9983 3.68496H26.7473V1.05541H30.9983V3.68496ZM30.9983 14.2121H26.7473V4.73773H30.9983V14.2121ZM25.6845 14.2121H12.9405L10.815 12.1066V4.73773H15.066V10.0011H16.1288V4.73773H20.3798V10.0011H21.4426V4.73773H25.6936L25.6845 14.2121ZM9.7538 8.94829H6.0384V10.0037H9.75805V14.2148H3.91288L1.78737 12.1092V1.05541H6.0384V4.73773H9.75805L9.7538 8.94829ZM58.6162 3.68496H55.9593V0H50.1296L47.4477 3.68496H42.6828L41.0887 5.26385V3.68496H37.369V0H25.6872V3.68496H9.24899L6.56978 0H0.724609V12.6332L8.1602 20H15.5958V17.8945L17.7213 20H32.0606V17.8945L34.1861 20H41.0892V17.8945L43.2147 20H56.4928L61.2753 15.2623V6.31662L58.6162 3.68496Z" fill="#9145FF"/>
<path d="M50.6493 14.2121H54.8982V8.94821H55.9604V14.2121H60.2093V6.8432L58.0849 4.73766H54.8982V1.05322H50.6493V14.2121ZM32.0606 12.1065L34.1845 14.2121H40.027V10.001H36.3095V8.94821H40.027V4.73766H36.3095V1.05322H32.0606V12.1065ZM41.0893 12.1065L43.2137 14.2121H49.5871V10.001H45.3382V8.94821H49.5871V4.73766H43.2137L41.0893 6.8432V12.1065ZM26.7495 1.05322H30.9984V3.68489H26.7495V1.05322ZM9.75383 4.73766H6.03577V1.05322H1.78687V12.1065L3.91132 14.2121H9.75383V10.001H6.03577V8.94821H9.75383V4.73766ZM10.8161 12.1065L12.94 14.2121H25.6872V4.73766H21.4383V10.001H20.3756V4.73766H16.1272V10.001H15.065V4.73766H10.8161V12.1065ZM26.7495 4.73766H30.9984V14.2121H26.7495V4.73766Z" fill="white"/>
</svg>
