<svg width="64" height="16" viewBox="0 0 64 16" fill="none" xmlns="http://www.w3.org/2000/svg">
<g clip-path="url(#clip0_3498_19621)">
<path d="M22.0328 2.62291C21.7705 1.6393 20.9836 0.917989 20.0656 0.655694C18.2951 0.131104 11.2131 0.131104 11.2131 0.131104C11.2131 0.131104 4.19672 0.131104 2.4918 0.59012C1.5082 0.852415 0.786885 1.57373 0.52459 2.55733C0 4.32782 0 7.99996 0 7.99996C0 7.99996 0 11.6721 0.459016 13.377C0.721311 14.3606 1.5082 15.0819 2.42623 15.3442C4.19672 15.8688 11.2131 15.8688 11.2131 15.8688C11.2131 15.8688 18.2295 15.8688 20 15.4098C20.9836 15.1475 21.7049 14.3606 21.9672 13.4426C22.4262 11.6721 22.4262 8.06553 22.4262 8.06553C22.4262 8.06553 22.4918 4.32782 22.0328 2.62291V2.62291Z" fill="#FF0000"/>
<path d="M8.98364 11.3443L14.8197 8.00002L8.98364 4.65576V11.3443V11.3443Z" fill="white"/>
<path d="M26.3606 10.9507H28.3934C28.3279 12.7868 28.6557 13.3114 29.4426 13.3114C30.1639 13.3114 30.4918 12.8523 30.4918 11.8687C30.4918 10.3605 29.7049 9.63923 28.6557 8.72119C26.9508 7.213 26.2295 6.36054 26.2295 4.26218C26.2295 2.22939 27.1475 1.04906 29.5082 1.04906C31.8033 1.04906 32.7213 2.36054 32.3934 5.11464L30.3606 5.24578C30.4262 3.40972 30.2295 2.68841 29.377 2.68841C28.5901 2.68841 28.3279 3.213 28.3279 4.13103C28.3279 5.50808 28.918 5.96709 30.1639 7.14742C31.7377 8.59005 32.5901 9.4425 32.5901 11.4753C32.5901 14.0327 31.6065 15.0163 29.3115 15.0163C26.8852 14.9507 25.9672 13.7048 26.3606 10.9507V10.9507ZM37.836 14.4917C37.1803 14.8196 36.3279 14.8851 35.8033 14.8851C34.3606 14.8851 34.0983 14.1638 34.0983 12.3933V6.62283H33.3115V4.91791H34.2295L34.4918 1.96709H36.0656V4.91791H37.5738V6.62283H36.1311V12.0655C36.1311 12.9835 36.2623 13.1802 36.5901 13.1802C36.918 13.1802 37.1803 13.1146 37.4426 13.0491L37.836 14.4917V14.4917ZM44.8524 4.91791V14.8196H43.0819L42.8852 13.6392H42.8197C42.2951 14.6228 41.5738 15.0163 40.7213 15.0163C39.4098 15.0163 38.8197 14.1638 38.8197 12.3933V4.91791H41.0492V12.1966C41.0492 13.0491 41.2459 13.4425 41.7049 13.4425C42.0983 13.4425 42.4918 13.1802 42.6229 12.7868V4.91791H44.8524V4.91791ZM52.1967 0.721191V14.754H50.4918L50.2295 13.3769H50.1639C49.836 14.295 49.0492 14.9507 48.0656 14.9507C46.4918 14.9507 45.9672 13.8359 45.9672 10.6228V9.04906C45.9672 6.03267 46.6229 4.72119 48.1311 4.72119C48.918 4.72119 49.6393 5.11464 50.0328 5.77037H50.0983C50.0328 4.91791 50.0328 4.32775 50.0328 3.60644V0.721191H52.1967ZM50.0328 12.3933V6.81955C49.8361 6.49168 49.5082 6.29496 49.1803 6.29496C48.459 6.29496 48.2623 6.9507 48.2623 9.11464V10.3605C48.2623 12.59 48.459 13.2458 49.1147 13.2458C49.4426 13.3114 49.9016 12.9835 50.0328 12.3933ZM53.3115 2.36054C53.3115 1.31136 53.7049 0.983487 54.4918 0.983487C55.3442 0.983487 55.6721 1.31136 55.6721 2.36054C55.6721 3.47529 55.2787 3.73759 54.4918 3.73759C53.7049 3.73759 53.3115 3.47529 53.3115 2.36054ZM53.4426 4.91791H55.541V14.8196H53.4426V4.91791ZM56.5901 10.5573V9.11464C56.5901 5.90152 57.5082 4.72119 59.6721 4.72119C61.836 4.72119 62.6885 5.96709 62.6885 9.11464V10.5573C62.6885 13.6392 61.9016 14.9507 59.6065 14.9507C57.3115 14.9507 56.5901 13.6392 56.5901 10.5573V10.5573ZM60.459 11.3441V8.26218C60.459 6.88513 60.2623 6.22939 59.6065 6.22939C58.9508 6.22939 58.8197 6.9507 58.8197 8.26218V11.3441C58.8197 12.7868 59.0164 13.3769 59.6065 13.3769C60.2623 13.3769 60.459 12.7868 60.459 11.3441Z" fill="white"/>
</g>
<defs>
<clipPath id="clip0_3498_19621">
<rect width="64" height="15.7377" fill="white" transform="translate(0 0.131104)"/>
</clipPath>
</defs>
</svg>
